<svg width="120" height="120" viewBox="0 0 120 120" fill="none" xmlns="http://www.w3.org/2000/svg">
<path fill-rule="evenodd" clip-rule="evenodd" d="M120 60C120 75.913 113.679 91.1742 102.426 102.426C91.1742 113.679 75.913 120 60 120C44.087 120 28.8258 113.679 17.5736 102.426C6.32141 91.1742 0 75.913 0 60C0 44.087 6.32141 28.8258 17.5736 17.5736C28.8258 6.32141 44.087 0 60 0C75.913 0 91.1742 6.32141 102.426 17.5736C113.679 28.8258 120 44.087 120 60V60ZM49.275 45.2475H39.375C39.15 31.1025 50.1 26.25 60.045 26.25C70.5225 26.25 80.0925 31.725 80.0925 43.05C80.0925 51.15 75.33 55.005 70.7625 58.4775C65.235 62.67 63.1875 64.2375 63.1875 69.6225V72.285H53.3775L53.325 68.8125C53.04 61.86 57.0375 57.5775 62.085 53.91C66.51 50.58 69.3225 48.39 69.3225 43.6275C69.3225 37.44 64.6125 34.8675 59.4675 34.8675C52.71 34.8675 49.2825 39.39 49.2825 45.2475H49.275ZM58.6575 93.57C54.2775 93.57 51.09 90.615 51.09 86.6175C51.09 82.4775 54.2775 79.5675 58.665 79.5675C63.2325 79.5675 66.375 82.4775 66.375 86.6175C66.375 90.615 63.225 93.57 58.6575 93.57Z" fill="#1A202C"/>
</svg>
