<svg width="120" height="120" viewBox="0 0 120 120" fill="none" xmlns="http://www.w3.org/2000/svg">
<path d="M37.5 22.5C37.5 16.5326 39.8705 10.8097 44.0901 6.5901C48.3097 2.37053 54.0326 0 60 0C65.9674 0 71.6903 2.37053 75.9099 6.5901C80.1295 10.8097 82.5 16.5326 82.5 22.5V60C82.5 65.9674 80.1295 71.6903 75.9099 75.9099C71.6903 80.1295 65.9674 82.5 60 82.5C54.0326 82.5 48.3097 80.1295 44.0901 75.9099C39.8705 71.6903 37.5 65.9674 37.5 60V22.5Z" fill="white"/>
<path fill-rule="evenodd" clip-rule="evenodd" d="M26.25 48.75C27.2446 48.75 28.1984 49.1451 28.9016 49.8484C29.6049 50.5516 30 51.5054 30 52.5V60C30 67.9565 33.1607 75.5871 38.7868 81.2132C44.4129 86.8393 52.0435 90 60 90C67.9565 90 75.5871 86.8393 81.2132 81.2132C86.8393 75.5871 90 67.9565 90 60V52.5C90 51.5054 90.3951 50.5516 91.0983 49.8484C91.8016 49.1451 92.7554 48.75 93.75 48.75C94.7446 48.75 95.6984 49.1451 96.4017 49.8484C97.1049 50.5516 97.5 51.5054 97.5 52.5V60C97.5001 69.2965 94.0471 78.2616 87.8109 85.1561C81.5747 92.0505 72.9999 96.3829 63.75 97.3125V112.5H86.25C87.2446 112.5 88.1984 112.895 88.9017 113.598C89.6049 114.302 90 115.255 90 116.25C90 117.245 89.6049 118.198 88.9017 118.902C88.1984 119.605 87.2446 120 86.25 120H33.75C32.7554 120 31.8016 119.605 31.0984 118.902C30.3951 118.198 30 117.245 30 116.25C30 115.255 30.3951 114.302 31.0984 113.598C31.8016 112.895 32.7554 112.5 33.75 112.5H56.25V97.3125C47.0001 96.3829 38.4253 92.0505 32.1891 85.1561C25.9529 78.2616 22.4999 69.2965 22.5 60V52.5C22.5 51.5054 22.8951 50.5516 23.5984 49.8484C24.3016 49.1451 25.2554 48.75 26.25 48.75Z" fill="white"/>
</svg>
