<svg width="120" height="120" viewBox="0 0 120 120" fill="none" xmlns="http://www.w3.org/2000/svg">
<circle cx="60" cy="60" r="60" fill="white"/>
<path d="M90.625 80.25V61.5491C90.625 55.4321 90.625 52.3736 89.411 49.6702C88.197 46.9667 85.911 44.9348 81.3391 40.8708L81.3391 40.8708L77.8807 37.7967C69.1332 30.0212 64.7594 26.1334 59.5 26.1334C54.2406 26.1334 49.8668 30.0212 41.1193 37.7967L37.6609 40.8708C33.089 44.9348 30.803 46.9667 29.589 49.6702C28.375 52.3736 28.375 55.4321 28.375 61.5491V80.25C28.375 83.4727 28.375 85.0841 28.9015 86.3552C29.6035 88.05 30.95 89.3965 32.6448 90.0985C33.9159 90.625 35.5272 90.625 38.75 90.625H39.9028C42.0469 90.625 43.1189 90.625 43.9985 90.3893C46.3854 89.7497 48.2498 87.8854 48.8893 85.4985C49.125 84.6189 49.125 83.5469 49.125 81.4028V73.3333C49.125 67.6034 53.77 62.9583 59.5 62.9583C65.23 62.9583 69.875 67.6034 69.875 73.3333V81.4028C69.875 83.5469 69.875 84.6189 70.1107 85.4985C70.7502 87.8854 72.6146 89.7497 75.0015 90.3893C75.8811 90.625 76.9531 90.625 79.0972 90.625H80.25C83.4728 90.625 85.0841 90.625 86.3552 90.0985C88.05 89.3965 89.3965 88.05 90.0985 86.3552C90.625 85.0841 90.625 83.4727 90.625 80.25Z" fill="#0072C6"/>
</svg>
