<svg width="120" height="120" viewBox="0 0 120 120" fill="none" xmlns="http://www.w3.org/2000/svg">
<path fill-rule="evenodd" clip-rule="evenodd" d="M120 60C120 75.913 113.679 91.1742 102.426 102.426C91.1742 113.679 75.913 120 60 120C44.087 120 28.8258 113.679 17.5736 102.426C6.32141 91.1742 0 75.913 0 60C0 44.087 6.32141 28.8258 17.5736 17.5736C28.8258 6.32141 44.087 0 60 0C75.913 0 91.1742 6.32141 102.426 17.5736C113.679 28.8258 120 44.087 120 60V60ZM63.75 30C63.75 29.0054 63.3549 28.0516 62.6517 27.3484C61.9484 26.6451 60.9946 26.25 60 26.25C59.0054 26.25 58.0516 26.6451 57.3484 27.3484C56.6451 28.0516 56.25 29.0054 56.25 30V56.25H30C29.0054 56.25 28.0516 56.6451 27.3484 57.3484C26.6451 58.0516 26.25 59.0054 26.25 60C26.25 60.9946 26.6451 61.9484 27.3484 62.6517C28.0516 63.3549 29.0054 63.75 30 63.75H56.25V90C56.25 90.9946 56.6451 91.9484 57.3484 92.6517C58.0516 93.3549 59.0054 93.75 60 93.75C60.9946 93.75 61.9484 93.3549 62.6517 92.6517C63.3549 91.9484 63.75 90.9946 63.75 90V63.75H90C90.9946 63.75 91.9484 63.3549 92.6517 62.6517C93.3549 61.9484 93.75 60.9946 93.75 60C93.75 59.0054 93.3549 58.0516 92.6517 57.3484C91.9484 56.6451 90.9946 56.25 90 56.25H63.75V30Z" fill="white"/>
</svg>
