<svg width="120" height="120" viewBox="0 0 120 120" fill="none" xmlns="http://www.w3.org/2000/svg">
<g clip-path="url(#clip0)">
<path fill-rule="evenodd" clip-rule="evenodd" d="M70.5375 7.875C67.44 -2.625 52.56 -2.625 49.4625 7.875L48.7125 10.425C48.2497 11.997 47.4409 13.4454 46.3454 14.6641C45.25 15.8828 43.8956 16.8408 42.3817 17.468C40.8678 18.0951 39.2327 18.3755 37.5963 18.2884C35.96 18.2014 34.3639 17.7492 32.925 16.965L30.6 15.69C20.9775 10.455 10.455 20.9775 15.6975 30.5925L16.965 32.925C20.31 39.075 17.1375 46.7325 10.425 48.7125L7.875 49.4625C-2.625 52.56 -2.625 67.44 7.875 70.5375L10.425 71.2875C11.997 71.7503 13.4454 72.5591 14.6641 73.6546C15.8828 74.75 16.8408 76.1044 17.468 77.6183C18.0951 79.1322 18.3755 80.7673 18.2884 82.4037C18.2014 84.04 17.7492 85.6361 16.965 87.075L15.69 89.4C10.455 99.0225 20.9775 109.545 30.5925 104.302L32.925 103.035C34.3639 102.251 35.96 101.799 37.5963 101.712C39.2327 101.625 40.8678 101.905 42.3817 102.532C43.8956 103.159 45.25 104.117 46.3454 105.336C47.4409 106.555 48.2497 108.003 48.7125 109.575L49.4625 112.125C52.56 122.625 67.44 122.625 70.5375 112.125L71.2875 109.575C71.7503 108.003 72.5591 106.555 73.6546 105.336C74.75 104.117 76.1044 103.159 77.6183 102.532C79.1322 101.905 80.7673 101.625 82.4037 101.712C84.04 101.799 85.6361 102.251 87.075 103.035L89.4 104.31C99.0225 109.545 109.545 99.0225 104.302 89.4075L103.035 87.075C102.251 85.6361 101.799 84.04 101.712 82.4037C101.625 80.7673 101.905 79.1322 102.532 77.6183C103.159 76.1044 104.117 74.75 105.336 73.6546C106.555 72.5591 108.003 71.7503 109.575 71.2875L112.125 70.5375C122.625 67.44 122.625 52.56 112.125 49.4625L109.575 48.7125C108.003 48.2497 106.555 47.4409 105.336 46.3454C104.117 45.25 103.159 43.8956 102.532 42.3817C101.905 40.8678 101.625 39.2327 101.712 37.5963C101.799 35.96 102.251 34.3639 103.035 32.925L104.31 30.6C109.545 20.9775 99.0225 10.455 89.4075 15.6975L87.075 16.965C85.6361 17.7492 84.04 18.2014 82.4037 18.2884C80.7673 18.3755 79.1322 18.0951 77.6183 17.468C76.1044 16.8408 74.75 15.8828 73.6546 14.6641C72.5591 13.4454 71.7503 11.997 71.2875 10.425L70.5375 7.875V7.875ZM60 81.975C65.8281 81.975 71.4176 79.6598 75.5387 75.5387C79.6598 71.4176 81.975 65.8281 81.975 60C81.975 54.1719 79.6598 48.5824 75.5387 44.4613C71.4176 40.3402 65.8281 38.025 60 38.025C54.1739 38.025 48.5863 40.3394 44.4666 44.4591C40.3469 48.5788 38.0325 54.1664 38.0325 59.9925C38.0325 65.8186 40.3469 71.4062 44.4666 75.5259C48.5863 79.6456 54.1739 81.96 60 81.96V81.975Z" fill="#1A202C"/>
</g>
<defs>
<clipPath id="clip0">
<rect width="120" height="120" fill="white"/>
</clipPath>
</defs>
</svg>
